<svg width="24" height="24" viewBox="0 0 24 24" fill="none" xmlns="http://www.w3.org/2000/svg">
<path fill-rule="evenodd" clip-rule="evenodd" d="M17 11.5C17 14.5376 14.5376 17 11.5 17C8.46243 17 6 14.5376 6 11.5C6 8.46243 8.46243 6 11.5 6C14.5376 6 17 8.46243 17 11.5ZM16.0491 17.4633C14.7873 18.4274 13.2105 19 11.5 19C7.35786 19 4 15.6421 4 11.5C4 7.35786 7.35786 4 11.5 4C15.6421 4 19 7.35786 19 11.5C19 13.2105 18.4274 14.7873 17.4633 16.0491L20.7071 19.2929L19.2929 20.7071L16.0491 17.4633Z" fill="#FFD930"/>
</svg>
